<?xml version="1.0" encoding="UTF-8" standalone="no"?>
<!-- Generator: Gravit.io -->
<svg xmlns="http://www.w3.org/2000/svg" xmlns:xlink="http://www.w3.org/1999/xlink" style="isolation:isolate" viewBox="0 0 16 16" width="16pt" height="16pt"><defs><clipPath id="_clipPath_nC6Jmi3HHFBy49JSKZ5F7GkyE92teuLo"><rect width="16" height="16"/></clipPath></defs><g clip-path="url(#_clipPath_nC6Jmi3HHFBy49JSKZ5F7GkyE92teuLo)"><path d=" M 1 1 L 1 3 L 3 3 L 3 1 L 1 1 Z  M 4 1 L 4 3 L 6 3 L 6 1 L 4 1 Z  M 7 1 L 7 3 L 9 3 L 9 1 L 7 1 Z  M 10 1 L 10 3 L 12 3 L 12 1 L 10 1 Z  M 13 1 L 13 3 L 15 3 L 15 1 L 13 1 Z  M 1 4 L 1 6 L 3 6 L 3 4 L 1 4 Z  M 4 4 L 4 6 L 6 6 L 6 4 L 4 4 Z  M 7 4 L 7 6 L 9 6 L 9 4 L 7 4 Z  M 10 4 L 10 6 L 12 6 L 12 4 L 10 4 Z  M 13 4 L 13 6 L 15 6 L 15 4 L 13 4 Z  M 1 7 L 1 9 L 3 9 L 3 7 L 1 7 Z  M 4 7 L 4 9 L 6 9 L 6 7 L 4 7 Z  M 1 10 L 1 12 L 3 12 L 3 10 L 1 10 Z  M 4 10 L 4 12 L 6 12 L 6 10 L 4 10 Z  M 1 13 L 1 15 L 3 15 L 3 13 L 1 13 Z  M 4 13 L 4 15 L 6 15 L 6 13 L 4 13 Z " fill="rgb(255,255,255)" fill-opacity="0.98824"/><path d=" M 14.049 11.4 C 14.049 11.28 14.091 11.12 14.091 11 C 14.091 10.88 14.091 10.72 14.049 10.6 L 14.914 10 C 14.996 9.959 15.037 9.841 14.956 9.72 L 14.133 8.32 C 14.091 8.2 13.967 8.16 13.886 8.2 L 12.899 8.641 C 12.694 8.48 12.404 8.32 12.158 8.241 L 12.035 7.2 C 12.035 7.08 11.952 7 11.829 7 L 10.184 7 C 10.06 7 9.978 7.08 9.978 7.2 L 9.855 8.2 C 9.567 8.32 9.319 8.441 9.114 8.6 L 8.127 8.2 C 8.045 8.159 7.922 8.2 7.88 8.28 L 7.057 9.68 C 6.975 9.8 6.975 9.92 7.099 9.959 L 7.963 10.6 C 7.963 10.72 7.922 10.88 7.922 11 C 7.922 11.12 7.922 11.28 7.963 11.4 L 7.099 12 C 7.017 12.041 6.976 12.159 7.057 12.28 L 7.88 13.68 C 7.922 13.8 8.045 13.841 8.127 13.8 L 9.114 13.359 C 9.319 13.52 9.609 13.68 9.854 13.759 L 9.978 14.8 C 9.978 14.92 10.06 15 10.184 15 L 11.829 15 C 11.952 15 12.035 14.92 12.035 14.8 L 12.158 13.759 C 12.446 13.641 12.694 13.52 12.899 13.359 L 13.886 13.8 C 13.968 13.841 14.091 13.8 14.133 13.72 L 14.956 12.32 C 14.996 12.241 14.996 12.12 14.914 12.041 L 14.049 11.4 Z  M 11.006 12.6 C 10.101 12.6 9.361 11.88 9.361 11 C 9.361 10.12 10.101 9.4 11.006 9.4 C 11.911 9.4 12.652 10.12 12.652 11 C 12.652 11.88 11.911 12.6 11.006 12.6 Z " fill="rgb(255,255,255)"/></g></svg>